<?xml version="1.0" encoding="UTF-8" standalone="no"?>
<!DOCTYPE svg PUBLIC "-//W3C//DTD SVG 1.1//EN"
 "http://www.w3.org/Graphics/SVG/1.1/DTD/svg11.dtd">
<!-- Generated by graphviz version 7.1.0 (20230121.1956)
 -->
<!-- Title: graph_title Pages: 1 -->
<svg width="1281pt" height="578pt"
 viewBox="0.00 0.00 1281.00 578.00" xmlns="http://www.w3.org/2000/svg" xmlns:xlink="http://www.w3.org/1999/xlink">
<g id="graph0" class="graph" transform="scale(1 1) rotate(0) translate(4 574)">
<title>graph_title</title>
<polygon fill="white" stroke="none" points="-4,4 -4,-574 1277,-574 1277,4 -4,4"/>
<!-- Admin -->
<g id="node1" class="node">
<title>Admin</title>
<path fill="none" stroke="black" d="M157,-84.5C157,-84.5 188,-84.5 188,-84.5 194,-84.5 200,-90.5 200,-96.5 200,-96.5 200,-119.5 200,-119.5 200,-125.5 194,-131.5 188,-131.5 188,-131.5 157,-131.5 157,-131.5 151,-131.5 145,-125.5 145,-119.5 145,-119.5 145,-96.5 145,-96.5 145,-90.5 151,-84.5 157,-84.5"/>
<text text-anchor="middle" x="172.5" y="-116.3" font-family="Times,serif" font-size="14.00">Admin</text>
<polyline fill="none" stroke="black" points="145,-108.5 200,-108.5"/>
</g>
<!-- Admin::AdminController -->
<g id="node2" class="node">
<title>Admin::AdminController</title>
<path fill="none" stroke="black" d="M106.5,-198.5C106.5,-198.5 238.5,-198.5 238.5,-198.5 244.5,-198.5 250.5,-204.5 250.5,-210.5 250.5,-210.5 250.5,-256.5 250.5,-256.5 250.5,-262.5 244.5,-268.5 238.5,-268.5 238.5,-268.5 106.5,-268.5 106.5,-268.5 100.5,-268.5 94.5,-262.5 94.5,-256.5 94.5,-256.5 94.5,-210.5 94.5,-210.5 94.5,-204.5 100.5,-198.5 106.5,-198.5"/>
<text text-anchor="middle" x="172.5" y="-253.3" font-family="Times,serif" font-size="14.00">Admin::AdminController</text>
<polyline fill="none" stroke="black" points="94.5,-245.5 250.5,-245.5"/>
<polyline fill="none" stroke="black" points="94.5,-221.5 250.5,-221.5"/>
<text text-anchor="start" x="102.5" y="-206.3" font-family="Times,serif" font-size="14.00">I # admin?()</text>
</g>
<!-- Admin::AdminController&#45;&gt;Admin -->
<g id="edge1" class="edge">
<title>Admin::AdminController&#45;&gt;Admin</title>
<path fill="none" stroke="black" d="M172.5,-198.75C172.5,-181.85 172.5,-161.39 172.5,-144.28"/>
<polygon fill="black" stroke="black" points="172.5,-144.3 168.5,-138.3 172.5,-132.3 176.5,-138.3 172.5,-144.3"/>
</g>
<!-- ApplicationController -->
<g id="node5" class="node">
<title>ApplicationController</title>
<path fill="none" stroke="black" d="M391.5,-84.5C391.5,-84.5 503.5,-84.5 503.5,-84.5 509.5,-84.5 515.5,-90.5 515.5,-96.5 515.5,-96.5 515.5,-119.5 515.5,-119.5 515.5,-125.5 509.5,-131.5 503.5,-131.5 503.5,-131.5 391.5,-131.5 391.5,-131.5 385.5,-131.5 379.5,-125.5 379.5,-119.5 379.5,-119.5 379.5,-96.5 379.5,-96.5 379.5,-90.5 385.5,-84.5 391.5,-84.5"/>
<text text-anchor="middle" x="447.5" y="-116.3" font-family="Times,serif" font-size="14.00">ApplicationController</text>
<polyline fill="none" stroke="black" points="379.5,-108.5 515.5,-108.5"/>
</g>
<!-- Admin::AdminController&#45;&gt;ApplicationController -->
<g id="edge4" class="edge">
<title>Admin::AdminController&#45;&gt;ApplicationController</title>
<path fill="none" stroke="black" d="M235.16,-198.59C254.9,-188.33 276.93,-177.33 297.5,-168 322.7,-156.58 350.81,-145.18 375.82,-135.49"/>
<polygon fill="none" stroke="black" points="376.85,-138.84 384.92,-131.99 374.33,-132.31 376.85,-138.84"/>
</g>
<!-- Admin::CategoriesController -->
<g id="node3" class="node">
<title>Admin::CategoriesController</title>
<path fill="none" stroke="black" d="M187.5,-365C187.5,-365 339.5,-365 339.5,-365 345.5,-365 351.5,-371 351.5,-377 351.5,-377 351.5,-528 351.5,-528 351.5,-534 345.5,-540 339.5,-540 339.5,-540 187.5,-540 187.5,-540 181.5,-540 175.5,-534 175.5,-528 175.5,-528 175.5,-377 175.5,-377 175.5,-371 181.5,-365 187.5,-365"/>
<text text-anchor="middle" x="263.5" y="-524.8" font-family="Times,serif" font-size="14.00">Admin::CategoriesController</text>
<polyline fill="none" stroke="black" points="175.5,-517 351.5,-517"/>
<polyline fill="none" stroke="black" points="175.5,-493 351.5,-493"/>
<text text-anchor="start" x="183.5" y="-477.8" font-family="Times,serif" font-size="14.00">I + index()</text>
<text text-anchor="start" x="183.5" y="-462.8" font-family="Times,serif" font-size="14.00">I + new()</text>
<text text-anchor="start" x="183.5" y="-447.8" font-family="Times,serif" font-size="14.00">I + create()</text>
<text text-anchor="start" x="183.5" y="-432.8" font-family="Times,serif" font-size="14.00">I + edit()</text>
<text text-anchor="start" x="183.5" y="-417.8" font-family="Times,serif" font-size="14.00">I + update()</text>
<text text-anchor="start" x="183.5" y="-402.8" font-family="Times,serif" font-size="14.00">I + destroy()</text>
<text text-anchor="start" x="183.5" y="-387.8" font-family="Times,serif" font-size="14.00">I &#45; set_category()</text>
<text text-anchor="start" x="183.5" y="-372.8" font-family="Times,serif" font-size="14.00">I &#45; category_params()</text>
</g>
<!-- Admin::CategoriesController&#45;&gt;Admin -->
<g id="edge2" class="edge">
<title>Admin::CategoriesController&#45;&gt;Admin</title>
<path fill="none" stroke="black" d="M282.19,-365.08C290.37,-306.07 291.85,-228.01 259.5,-168 249.13,-148.76 229.42,-134.61 211.38,-125"/>
<polygon fill="black" stroke="black" points="211.45,-125.03 204.3,-125.97 200.69,-119.73 207.84,-118.79 211.45,-125.03"/>
</g>
<!-- Admin::CategoriesController&#45;&gt;Admin::AdminController -->
<g id="edge5" class="edge">
<title>Admin::CategoriesController&#45;&gt;Admin::AdminController</title>
<path fill="none" stroke="black" d="M227.27,-365.11C214.88,-335.56 201.53,-303.73 191.11,-278.89"/>
<polygon fill="none" stroke="black" points="194.38,-277.61 187.28,-269.75 187.92,-280.32 194.38,-277.61"/>
</g>
<!-- Admin::TasksController -->
<g id="node4" class="node">
<title>Admin::TasksController</title>
<path fill="none" stroke="black" d="M12,-372.5C12,-372.5 137,-372.5 137,-372.5 143,-372.5 149,-378.5 149,-384.5 149,-384.5 149,-520.5 149,-520.5 149,-526.5 143,-532.5 137,-532.5 137,-532.5 12,-532.5 12,-532.5 6,-532.5 0,-526.5 0,-520.5 0,-520.5 0,-384.5 0,-384.5 0,-378.5 6,-372.5 12,-372.5"/>
<text text-anchor="middle" x="74.5" y="-517.3" font-family="Times,serif" font-size="14.00">Admin::TasksController</text>
<polyline fill="none" stroke="black" points="0,-509.5 149,-509.5"/>
<polyline fill="none" stroke="black" points="0,-485.5 149,-485.5"/>
<text text-anchor="start" x="8" y="-470.3" font-family="Times,serif" font-size="14.00">I + new()</text>
<text text-anchor="start" x="8" y="-455.3" font-family="Times,serif" font-size="14.00">I + create()</text>
<text text-anchor="start" x="8" y="-440.3" font-family="Times,serif" font-size="14.00">I + edit()</text>
<text text-anchor="start" x="8" y="-425.3" font-family="Times,serif" font-size="14.00">I + update()</text>
<text text-anchor="start" x="8" y="-410.3" font-family="Times,serif" font-size="14.00">I + destroy()</text>
<text text-anchor="start" x="8" y="-395.3" font-family="Times,serif" font-size="14.00">I &#45; set_task()</text>
<text text-anchor="start" x="8" y="-380.3" font-family="Times,serif" font-size="14.00">I &#45; task_params()</text>
</g>
<!-- Admin::TasksController&#45;&gt;Admin -->
<g id="edge3" class="edge">
<title>Admin::TasksController&#45;&gt;Admin</title>
<path fill="none" stroke="black" d="M59.32,-372.73C51.9,-312.82 50.89,-230.33 85.5,-168 96.11,-148.89 115.83,-134.75 133.82,-125.11"/>
<polygon fill="black" stroke="black" points="133.73,-125.16 137.32,-118.9 144.47,-119.82 140.88,-126.07 133.73,-125.16"/>
</g>
<!-- Admin::TasksController&#45;&gt;Admin::AdminController -->
<g id="edge6" class="edge">
<title>Admin::TasksController&#45;&gt;Admin::AdminController</title>
<path fill="none" stroke="black" d="M110.16,-372.54C124.46,-340.88 140.4,-305.58 152.58,-278.6"/>
<polygon fill="none" stroke="black" points="155.68,-280.26 156.6,-269.7 149.3,-277.38 155.68,-280.26"/>
</g>
<!-- ActionController::Base -->
<g id="node14" class="node">
<title>ActionController::Base</title>
<path fill="none" stroke="black" d="M388,-0.5C388,-0.5 507,-0.5 507,-0.5 513,-0.5 519,-6.5 519,-12.5 519,-12.5 519,-35.5 519,-35.5 519,-41.5 513,-47.5 507,-47.5 507,-47.5 388,-47.5 388,-47.5 382,-47.5 376,-41.5 376,-35.5 376,-35.5 376,-12.5 376,-12.5 376,-6.5 382,-0.5 388,-0.5"/>
<text text-anchor="middle" x="447.5" y="-32.3" font-family="Times,serif" font-size="14.00">ActionController::Base</text>
<polyline fill="none" stroke="black" points="376,-24.5 519,-24.5"/>
</g>
<!-- ApplicationController&#45;&gt;ActionController::Base -->
<g id="edge7" class="edge">
<title>ApplicationController&#45;&gt;ActionController::Base</title>
<path fill="none" stroke="black" d="M447.5,-84.59C447.5,-76.64 447.5,-67.5 447.5,-58.81"/>
<polygon fill="none" stroke="black" points="451,-58.89 447.5,-48.89 444,-58.89 451,-58.89"/>
</g>
<!-- CategoriesController -->
<g id="node6" class="node">
<title>CategoriesController</title>
<path fill="none" stroke="black" d="M318.5,-191C318.5,-191 424.5,-191 424.5,-191 430.5,-191 436.5,-197 436.5,-203 436.5,-203 436.5,-264 436.5,-264 436.5,-270 430.5,-276 424.5,-276 424.5,-276 318.5,-276 318.5,-276 312.5,-276 306.5,-270 306.5,-264 306.5,-264 306.5,-203 306.5,-203 306.5,-197 312.5,-191 318.5,-191"/>
<text text-anchor="middle" x="371.5" y="-260.8" font-family="Times,serif" font-size="14.00">CategoriesController</text>
<polyline fill="none" stroke="black" points="306.5,-253 436.5,-253"/>
<polyline fill="none" stroke="black" points="306.5,-229 436.5,-229"/>
<text text-anchor="start" x="314.5" y="-213.8" font-family="Times,serif" font-size="14.00">I + show()</text>
<text text-anchor="start" x="314.5" y="-198.8" font-family="Times,serif" font-size="14.00">I &#45; set_category()</text>
</g>
<!-- CategoriesController&#45;&gt;ApplicationController -->
<g id="edge8" class="edge">
<title>CategoriesController&#45;&gt;ApplicationController</title>
<path fill="none" stroke="black" d="M397.02,-191.03C407.06,-174.71 418.42,-156.25 427.81,-140.99"/>
<polygon fill="none" stroke="black" points="430.62,-143.11 432.88,-132.76 424.65,-139.45 430.62,-143.11"/>
</g>
<!-- CompilerController -->
<g id="node7" class="node">
<title>CompilerController</title>
<path fill="none" stroke="black" d="M467,-183.5C467,-183.5 580,-183.5 580,-183.5 586,-183.5 592,-189.5 592,-195.5 592,-195.5 592,-271.5 592,-271.5 592,-277.5 586,-283.5 580,-283.5 580,-283.5 467,-283.5 467,-283.5 461,-283.5 455,-277.5 455,-271.5 455,-271.5 455,-195.5 455,-195.5 455,-189.5 461,-183.5 467,-183.5"/>
<text text-anchor="middle" x="523.5" y="-268.3" font-family="Times,serif" font-size="14.00">CompilerController</text>
<polyline fill="none" stroke="black" points="455,-260.5 592,-260.5"/>
<polyline fill="none" stroke="black" points="455,-236.5 592,-236.5"/>
<text text-anchor="start" x="463" y="-221.3" font-family="Times,serif" font-size="14.00">I + execute()</text>
<text text-anchor="start" x="463" y="-206.3" font-family="Times,serif" font-size="14.00">I + submit_code()</text>
<text text-anchor="start" x="463" y="-191.3" font-family="Times,serif" font-size="14.00">I &#45; compiler_params()</text>
</g>
<!-- CompilerController&#45;&gt;ApplicationController -->
<g id="edge9" class="edge">
<title>CompilerController&#45;&gt;ApplicationController</title>
<path fill="none" stroke="black" d="M493.46,-183.69C484.6,-169.29 475.14,-153.91 467.11,-140.87"/>
<polygon fill="none" stroke="black" points="470.31,-139.38 462.08,-132.7 464.34,-143.05 470.31,-139.38"/>
</g>
<!-- TasksController -->
<g id="node8" class="node">
<title>TasksController</title>
<path fill="none" stroke="black" d="M622,-168.5C622,-168.5 735,-168.5 735,-168.5 741,-168.5 747,-174.5 747,-180.5 747,-180.5 747,-286.5 747,-286.5 747,-292.5 741,-298.5 735,-298.5 735,-298.5 622,-298.5 622,-298.5 616,-298.5 610,-292.5 610,-286.5 610,-286.5 610,-180.5 610,-180.5 610,-174.5 616,-168.5 622,-168.5"/>
<text text-anchor="middle" x="678.5" y="-283.3" font-family="Times,serif" font-size="14.00">TasksController</text>
<polyline fill="none" stroke="black" points="610,-275.5 747,-275.5"/>
<polyline fill="none" stroke="black" points="610,-251.5 747,-251.5"/>
<text text-anchor="start" x="618" y="-236.3" font-family="Times,serif" font-size="14.00">I + index()</text>
<text text-anchor="start" x="618" y="-221.3" font-family="Times,serif" font-size="14.00">I + show()</text>
<text text-anchor="start" x="618" y="-206.3" font-family="Times,serif" font-size="14.00">I + test_code()</text>
<text text-anchor="start" x="618" y="-191.3" font-family="Times,serif" font-size="14.00">I &#45; set_task()</text>
<text text-anchor="start" x="618" y="-176.3" font-family="Times,serif" font-size="14.00">I &#45; compiler_params()</text>
</g>
<!-- TasksController&#45;&gt;ApplicationController -->
<g id="edge10" class="edge">
<title>TasksController&#45;&gt;ApplicationController</title>
<path fill="none" stroke="black" d="M610.04,-173.94C606.87,-171.86 603.68,-169.86 600.5,-168 577.38,-154.47 550.6,-142.92 525.96,-133.72"/>
<polygon fill="none" stroke="black" points="527.19,-130.44 516.6,-130.3 524.79,-137.02 527.19,-130.44"/>
</g>
<!-- ApplicationRecord -->
<g id="node9" class="node">
<title>ApplicationRecord</title>
<path fill="none" stroke="black" d="M777,-210C777,-210 872,-210 872,-210 878,-210 884,-216 884,-222 884,-222 884,-245 884,-245 884,-251 878,-257 872,-257 872,-257 777,-257 777,-257 771,-257 765,-251 765,-245 765,-245 765,-222 765,-222 765,-216 771,-210 777,-210"/>
<text text-anchor="middle" x="824.5" y="-241.8" font-family="Times,serif" font-size="14.00">ApplicationRecord</text>
<polyline fill="none" stroke="black" points="765,-234 884,-234"/>
</g>
<!-- ActiveRecord::Base -->
<g id="node15" class="node">
<title>ActiveRecord::Base</title>
<path fill="none" stroke="black" d="M774,-84.5C774,-84.5 875,-84.5 875,-84.5 881,-84.5 887,-90.5 887,-96.5 887,-96.5 887,-119.5 887,-119.5 887,-125.5 881,-131.5 875,-131.5 875,-131.5 774,-131.5 774,-131.5 768,-131.5 762,-125.5 762,-119.5 762,-119.5 762,-96.5 762,-96.5 762,-90.5 768,-84.5 774,-84.5"/>
<text text-anchor="middle" x="824.5" y="-116.3" font-family="Times,serif" font-size="14.00">ActiveRecord::Base</text>
<polyline fill="none" stroke="black" points="762,-108.5 887,-108.5"/>
</g>
<!-- ApplicationRecord&#45;&gt;ActiveRecord::Base -->
<g id="edge11" class="edge">
<title>ApplicationRecord&#45;&gt;ActiveRecord::Base</title>
<path fill="none" stroke="black" d="M824.5,-210.14C824.5,-191.25 824.5,-163.93 824.5,-142.44"/>
<polygon fill="none" stroke="black" points="828,-142.71 824.5,-132.71 821,-142.71 828,-142.71"/>
</g>
<!-- Category -->
<g id="node10" class="node">
<title>Category</title>
<path fill="none" stroke="black" d="M725.5,-429C725.5,-429 767.5,-429 767.5,-429 773.5,-429 779.5,-435 779.5,-441 779.5,-441 779.5,-464 779.5,-464 779.5,-470 773.5,-476 767.5,-476 767.5,-476 725.5,-476 725.5,-476 719.5,-476 713.5,-470 713.5,-464 713.5,-464 713.5,-441 713.5,-441 713.5,-435 719.5,-429 725.5,-429"/>
<text text-anchor="middle" x="746.5" y="-460.8" font-family="Times,serif" font-size="14.00">Category</text>
<polyline fill="none" stroke="black" points="713.5,-453 779.5,-453"/>
</g>
<!-- Category&#45;&gt;ApplicationRecord -->
<g id="edge12" class="edge">
<title>Category&#45;&gt;ApplicationRecord</title>
<path fill="none" stroke="black" d="M754.55,-429.09C768.37,-390.66 796.64,-312 812.69,-267.36"/>
<polygon fill="none" stroke="black" points="815.89,-268.8 815.98,-258.21 809.3,-266.43 815.89,-268.8"/>
</g>
<!-- Task -->
<g id="node11" class="node">
<title>Task</title>
<path fill="none" stroke="black" d="M809.5,-429C809.5,-429 839.5,-429 839.5,-429 845.5,-429 851.5,-435 851.5,-441 851.5,-441 851.5,-464 851.5,-464 851.5,-470 845.5,-476 839.5,-476 839.5,-476 809.5,-476 809.5,-476 803.5,-476 797.5,-470 797.5,-464 797.5,-464 797.5,-441 797.5,-441 797.5,-435 803.5,-429 809.5,-429"/>
<text text-anchor="middle" x="824.5" y="-460.8" font-family="Times,serif" font-size="14.00">Task</text>
<polyline fill="none" stroke="black" points="797.5,-453 851.5,-453"/>
</g>
<!-- Task&#45;&gt;ApplicationRecord -->
<g id="edge13" class="edge">
<title>Task&#45;&gt;ApplicationRecord</title>
<path fill="none" stroke="black" d="M824.5,-429.09C824.5,-390.91 824.5,-313 824.5,-268.21"/>
<polygon fill="none" stroke="black" points="828,-268.3 824.5,-258.3 821,-268.3 828,-268.3"/>
</g>
<!-- User -->
<g id="node12" class="node">
<title>User</title>
<path fill="none" stroke="black" d="M881.5,-417.5C881.5,-417.5 943.5,-417.5 943.5,-417.5 949.5,-417.5 955.5,-423.5 955.5,-429.5 955.5,-429.5 955.5,-475.5 955.5,-475.5 955.5,-481.5 949.5,-487.5 943.5,-487.5 943.5,-487.5 881.5,-487.5 881.5,-487.5 875.5,-487.5 869.5,-481.5 869.5,-475.5 869.5,-475.5 869.5,-429.5 869.5,-429.5 869.5,-423.5 875.5,-417.5 881.5,-417.5"/>
<text text-anchor="middle" x="912.5" y="-472.3" font-family="Times,serif" font-size="14.00">User</text>
<polyline fill="none" stroke="black" points="869.5,-464.5 955.5,-464.5"/>
<polyline fill="none" stroke="black" points="869.5,-440.5 955.5,-440.5"/>
<text text-anchor="start" x="877.5" y="-425.3" font-family="Times,serif" font-size="14.00">I + admin?()</text>
</g>
<!-- User&#45;&gt;ApplicationRecord -->
<g id="edge14" class="edge">
<title>User&#45;&gt;ApplicationRecord</title>
<path fill="none" stroke="black" d="M898.75,-417.59C882.14,-376.63 854.37,-308.16 837.91,-267.57"/>
<polygon fill="none" stroke="black" points="841.16,-266.26 834.15,-258.31 834.67,-268.89 841.16,-266.26"/>
</g>
<!-- RemoteCodeCompiler -->
<g id="node13" class="node">
<title>RemoteCodeCompiler</title>
<path fill="none" stroke="black" d="M986,-335.5C986,-335.5 1261,-335.5 1261,-335.5 1267,-335.5 1273,-341.5 1273,-347.5 1273,-347.5 1273,-557.5 1273,-557.5 1273,-563.5 1267,-569.5 1261,-569.5 1261,-569.5 986,-569.5 986,-569.5 980,-569.5 974,-563.5 974,-557.5 974,-557.5 974,-347.5 974,-347.5 974,-341.5 980,-335.5 986,-335.5"/>
<text text-anchor="middle" x="1123.5" y="-554.3" font-family="Times,serif" font-size="14.00">RemoteCodeCompiler</text>
<polyline fill="none" stroke="black" points="974,-546.5 1273,-546.5"/>
<text text-anchor="start" x="982" y="-531.3" font-family="Times,serif" font-size="14.00">(ro) params</text>
<text text-anchor="start" x="982" y="-516.3" font-family="Times,serif" font-size="14.00">S + call(params)</text>
<polyline fill="none" stroke="black" points="974,-508.5 1273,-508.5"/>
<text text-anchor="start" x="982" y="-493.3" font-family="Times,serif" font-size="14.00">I + initialize(params)</text>
<text text-anchor="start" x="982" y="-478.3" font-family="Times,serif" font-size="14.00">I + compile()</text>
<text text-anchor="start" x="982" y="-463.3" font-family="Times,serif" font-size="14.00">I &#45; perform_request(url, method, compiler_params)</text>
<text text-anchor="start" x="982" y="-448.3" font-family="Times,serif" font-size="14.00">I &#45; default_headers()</text>
<text text-anchor="start" x="982" y="-433.3" font-family="Times,serif" font-size="14.00">I &#45; compiler_params()</text>
<text text-anchor="start" x="982" y="-418.3" font-family="Times,serif" font-size="14.00">I &#45; compiler_test_cases()</text>
<text text-anchor="start" x="982" y="-403.3" font-family="Times,serif" font-size="14.00">I &#45; tests(tests_amount)</text>
<text text-anchor="start" x="982" y="-388.3" font-family="Times,serif" font-size="14.00">I &#45; file(text, extension)</text>
<text text-anchor="start" x="982" y="-373.3" font-family="Times,serif" font-size="14.00">I &#45; filename()</text>
<text text-anchor="start" x="982" y="-358.3" font-family="Times,serif" font-size="14.00">I &#45; random_string()</text>
<text text-anchor="start" x="982" y="-343.3" font-family="Times,serif" font-size="14.00">I &#45; code_extension_by_language()</text>
</g>
</g>
</svg>
